<?xml version="1.0" standalone="no"?>
<!DOCTYPE svg PUBLIC "-//W3C//DTD SVG 20010904//EN"
 "http://www.w3.org/TR/2001/REC-SVG-20010904/DTD/svg10.dtd">
<svg version="1.0" xmlns="http://www.w3.org/2000/svg"
 width="500.000000pt" height="500.000000pt" viewBox="0 0 500.000000 500.000000"
 preserveAspectRatio="xMidYMid meet">
<metadata>
Created by potrace 1.16, written by Peter Selinger 2001-2019
</metadata>
<g transform="translate(0.000000,500.000000) scale(0.100000,-0.100000)"
stroke="none">

  <path id="youtubeLogoOutline" fill="#FF0000" d="M2430 4533 c-328 -19 -574 -80 -836 -208 -409 -201 -755 -559 -940
-976 -128 -289 -175 -520 -174 -856 1 -275 33 -474 115 -703 169 -472 548
-896 1002 -1124 203 -101 341 -143 678 -204 72 -13 423 -5 535 12 329 50 630
176 893 374 388 292 658 703 766 1167 48 203 54 268 48 530 -5 257 -15 328
-68 520 -193 698 -761 1248 -1454 1408 -162 37 -225 47 -328 52 -50 3 -112 6
-137 8 -25 2 -70 2 -100 0z m297 -122 c26 -5 82 -15 123 -21 300 -47 624 -197
885 -410 291 -238 534 -627 623 -995 86 -356 81 -675 -15 -1024 -178 -647
-699 -1163 -1348 -1336 -441 -117 -912 -71 -1320 129 -397 195 -697 491 -893
881 -231 461 -263 1029 -86 1528 37 105 134 300 194 392 194 297 469 538 780
683 183 86 363 140 536 162 43 6 80 12 82 15 9 9 389 5 439 -4z"/>

  <path id="centralArea" fill="#FF0000" d="M1970 3066 c-176 -14 -222 -29 -284 -92 -88 -91 -106 -185 -102 -544
4 -304 9 -340 56 -427 40 -74 96 -125 158 -143 80 -24 316 -32 817 -27 421 5
520 8 565 21 105 30 180 104 216 212 17 54 19 89 19 384 -1 356 -7 408 -61
490 -28 42 -97 91 -154 109 -98 31 -899 41 -1230 17z m479 -360 c48 -29 124
-75 171 -102 47 -27 98 -57 115 -67 16 -10 37 -20 45 -23 8 -3 23 -19 33 -35
30 -53 8 -75 -203 -194 -19 -11 -49 -30 -67 -42 -17 -13 -34 -23 -38 -23 -3 0
-31 -16 -62 -36 -95 -60 -155 -72 -178 -34 -4 6 -8 135 -9 287 -1 244 1 279
16 303 15 25 22 28 54 24 22 -3 74 -27 123 -58z"/>

  <path id="audioLevel1" fill="#CCCCCC" d="M1383 3216 c-28 -24 -28 -24 -28 -736 0 -712 0 -712 24 -731 31 -26
67 -24 96 5 24 24 24 24 22 730 -2 691 -2 706 -22 725 -34 32 -60 34 -92 7z">
    <animateTransform attributeName="transform"
                      type="translate"
                      from="0 0"
                      to="0 50"
                      dur="1s"
                      begin="0s"
                      repeatCount="indefinite"
                      calcMode="spline"
                      keySplines="0.4 0 0.6 1; 0.4 0 0.6 1"
                      keyTimes="0; 0.5; 1"
                      values="0 0; 0 50; 0 0"/>
  </path>

  <path id="audioLevel2" fill="#CCCCCC" d="M1153 2889 c-52 -19 -53 -27 -53 -401 0 -347 0 -347 23 -374 15 -17
33 -26 52 -26 19 0 37 9 52 26 23 27 23 27 23 374 0 255 -4 353 -13 371 -14
28 -53 42 -84 30z">
     <animateTransform attributeName="transform"
                      type="translate"
                      from="0 0"
                      to="0 40"
                      dur="1s"
                      begin="0.1s"
                      repeatCount="indefinite"
                      calcMode="spline"
                      keySplines="0.4 0 0.6 1; 0.4 0 0.6 1"
                      keyTimes="0; 0.5; 1"
                      values="0 0; 0 40; 0 0"/>
  </path>

  <path id="audioLevel3" fill="#CCCCCC" d="M893 2673 c-22 -15 -23 -20 -23 -194 0 -179 0 -179 25 -195 34 -22
81 -10 100 26 11 22 15 66 15 175 0 147 0 147 -29 176 -33 32 -55 36 -88 12z">
     <animateTransform attributeName="transform"
                      type="translate"
                      from="0 0"
                      to="0 30"
                      dur="1s"
                      begin="0.2s"
                      repeatCount="indefinite"
                      calcMode="spline"
                      keySplines="0.4 0 0.6 1; 0.4 0 0.6 1"
                      keyTimes="0; 0.5; 1"
                      values="0 0; 0 30; 0 0"/>
  </path>

  <path id="audioLevel4" fill="#CCCCCC" d="M3699 3181 c-24 -19 -24 -19 -24 -679 0 -635 1 -661 19 -681 23 -25
72 -28 104 -5 22 15 22 15 22 680 0 651 0 664 -20 684 -25 25 -71 26 -101 1z">
     <animateTransform attributeName="transform"
                      type="translate"
                      from="0 0"
                      to="0 50"
                      dur="1s"
                      begin="0.3s"
                      repeatCount="indefinite"
                      calcMode="spline"
                      keySplines="0.4 0 0.6 1; 0.4 0 0.6 1"
                      keyTimes="0; 0.5; 1"
                      values="0 0; 0 50; 0 0"/>
  </path>

  <path id="audioLevel5" fill="#CCCCCC" d="M3941 2874 c-20 -26 -21 -38 -21 -384 0 -346 1 -358 21 -384 26 -33
77 -36 105 -5 18 20 19 41 19 389 0 348 -1 369 -19 389 -28 31 -79 28 -105 -5z">
     <animateTransform attributeName="transform"
                      type="translate"
                      from="0 0"
                      to="0 40"
                      dur="1s"
                      begin="0.4s"
                      repeatCount="indefinite"
                      calcMode="spline"
                      keySplines="0.4 0 0.6 1; 0.4 0 0.6 1"
                      keyTimes="0; 0.5; 1"
                      values="0 0; 0 40; 0 0"/>
  </path>

  <path id="audioLevel6" fill="#CCCCCC" d="M4182 2630 c-20 -19 -22 -30 -22 -139 0 -139 11 -165 71 -163 58 1
69 26 69 157 0 98 -3 116 -21 139 -25 32 -66 34 -97 6z">
     <animateTransform attributeName="transform"
                      type="translate"
                      from="0 0"
                      to="0 30"
                      dur="1s"
                      begin="0.5s"
                      repeatCount="indefinite"
                      calcMode="spline"
                      keySplines="0.4 0 0.6 1; 0.4 0 0.6 1"
                      keyTimes="0; 0.5; 1"
                      values="0 0; 0 30; 0 0"/>
  </path>

  <path id="audioLevel7" fill="#CCCCCC" d="M2449 4051 c-24 -19 -24 -19 -27 -456 -2 -327 0 -441 9 -452 9 -10
30 -13 73 -11 61 3 61 3 64 450 2 446 2 446 -24 467 -33 26 -65 27 -95 2z">
     <animateTransform attributeName="transform"
                      type="translate"
                      from="0 0"
                      to="0 25"
                      dur="1s"
                      begin="0.6s"
                      repeatCount="indefinite"
                      calcMode="spline"
                      keySplines="0.4 0 0.6 1; 0.4 0 0.6 1"
                      keyTimes="0; 0.5; 1"
                      values="0 0; 0 25; 0 0"/>
  </path>

  <path id="audioLevel8" fill="#CCCCCC" d="M2187 3724 c-27 -15 -27 -15 -25 -302 3 -287 3 -287 56 -290 31 -2
60 2 68 9 11 9 14 60 14 281 0 269 0 269 -25 293 -28 28 -48 31 -88 9z">
    <animateTransform attributeName="transform"
                      type="translate"
                      from="0 0"
                      to="0 20"
                      dur="1s"
                      begin="0.7s"
                      repeatCount="indefinite"
                      calcMode="spline"
                      keySplines="0.4 0 0.6 1; 0.4 0 0.6 1"
                      keyTimes="0; 0.5; 1"
                      values="0 0; 0 20; 0 0"/>
  </path>

  <path id="audioLevel9" fill="#CCCCCC" d="M3456 3718 c-26 -23 -26 -23 -26 -378 -1 -342 0 -357 21 -410 34 -87
49 -224 49 -461 0 -242 -17 -403 -51 -495 -22 -57 -23 -70 -21 -379 1 -314 2
-320 23 -337 30 -25 66 -22 94 7 25 24 25 24 22 1231 -4 1207 -4 1207 -26
1226 -31 24 -54 23 -85 -4z">
    <animateTransform attributeName="transform"
                      type="translate"
                      from="0 0"
                      to="0 45"
                      dur="1s"
                      begin="0.8s"
                      repeatCount="indefinite"
                      calcMode="spline"
                      keySplines="0.4 0 0.6 1; 0.4 0 0.6 1"
                      keyTimes="0; 0.5; 1"
                      values="0 0; 0 45; 0 0"/>
  </path>

  <path id="audioLevel10" fill="#CCCCCC" d="M2696 3581 c-14 -16 -16 -43 -14 -232 3 -214 3 -214 65 -217 53 -3
63 0 72 17 7 13 10 89 9 210 -3 185 -4 190 -27 215 -30 31 -80 35 -105 7z">
     <animateTransform attributeName="transform"
                      type="translate"
                      from="0 0"
                      to="0 20"
                      dur="1s"
                      begin="0.9s"
                      repeatCount="indefinite"
                      calcMode="spline"
                      keySplines="0.4 0 0.6 1; 0.4 0 0.6 1"
                      keyTimes="0; 0.5; 1"
                      values="0 0; 0 20; 0 0"/>
  </path>

  <path id="audioLevel11" fill="#CCCCCC" d="M1630 3485 c-23 -25 -23 -27 -21 -242 1 -119 4 -219 6 -221 2 -3 21
10 41 28 21 18 52 39 71 46 33 14 33 14 33 185 0 205 -8 229 -76 229 -20 0
-39 -9 -54 -25z">
    <animateTransform attributeName="transform"
                      type="translate"
                      from="0 0"
                      to="0 30"
                      dur="1s"
                      begin="1.0s"
                      repeatCount="indefinite"
                      calcMode="spline"
                      keySplines="0.4 0 0.6 1; 0.4 0 0.6 1"
                      keyTimes="0; 0.5; 1"
                      values="0 0; 0 30; 0 0"/>
  </path>

  <path id="audioLevel12" fill="#CCCCCC" d="M3192 3387 c-20 -21 -22 -34 -22 -134 0 -77 4 -114 13 -120 12 -10
95 -33 116 -33 7 0 11 46 11 133 0 104 -3 137 -16 155 -21 30 -73 30 -102 -1z">
     <animateTransform attributeName="transform"
                      type="translate"
                      from="0 0"
                      to="0 15"
                      dur="1s"
                      begin="1.1s"
                      repeatCount="indefinite"
                      calcMode="spline"
                      keySplines="0.4 0 0.6 1; 0.4 0 0.6 1"
                      keyTimes="0; 0.5; 1"
                      values="0 0; 0 15; 0 0"/>
  </path>

  <path id="audioLevel13" fill="#CCCCCC" d="M1904 3345 c-23 -23 -25 -30 -22 -117 3 -93 3 -93 52 -96 27 -2 61
-1 74 3 23 6 24 8 20 99 -2 75 -7 98 -22 115 -26 29 -71 27 -102 -4z">
    <animateTransform attributeName="transform"
                      type="translate"
                      from="0 0"
                      to="0 15"
                      dur="1s"
                      begin="1.2s"
                      repeatCount="indefinite"
                      calcMode="spline"
                      keySplines="0.4 0 0.6 1; 0.4 0 0.6 1"
                      keyTimes="0; 0.5; 1"
                      values="0 0; 0 15; 0 0"/>
  </path>

  <path id="audioLevel14" fill="#CCCCCC" d="M2957 3308 c-34 -27 -51 -140 -25 -166 7 -7 35 -12 63 -12 28 0 56 5
63 12 21 21 15 122 -9 152 -22 29 -64 35 -92 14z">
    <animateTransform attributeName="transform"
                      type="translate"
                      from="0 0"
                      to="0 10"
                      dur="1s"
                      begin="1.3s"
                      repeatCount="indefinite"
                      calcMode="spline"
                      keySplines="0.4 0 0.6 1; 0.4 0 0.6 1"
                      keyTimes="0; 0.5; 1"
                      values="0 0; 0 10; 0 0"/>
  </path>

  <path id="audioLevel15" fill="#CCCCCC" d="M2449 4051 c-24 -19 -24 -19 -27 -456 -2 -327 0 -441 9 -452 9 -10
30 -13 73 -11 61 3 61 3 64 450 2 446 2 446 -24 467 -33 26 -65 27 -95 2z">
     <animateTransform attributeName="transform"
                      type="translate"
                      from="0 0"
                      to="0 25"
                      dur="1s"
                      begin="1.4s"
                      repeatCount="indefinite"
                      calcMode="spline"
                      keySplines="0.4 0 0.6 1; 0.4 0 0.6 1"
                      keyTimes="0; 0.5; 1"
                      values="0 0; 0 25; 0 0"/>
  </path>

  <path id="audioLevel16" fill="#CCCCCC" d="M2187 3724 c-27 -15 -27 -15 -25 -302 3 -287 3 -287 56 -290 31 -2
60 2 68 9 11 9 14 60 14 281 0 269 0 269 -25 293 -28 28 -48 31 -88 9z">
    <animateTransform attributeName="transform"
                      type="translate"
                      from="0 0"
                      to="0 20"
                      dur="1s"
                      begin="1.5s"
                      repeatCount="indefinite"
                      calcMode="spline"
                      keySplines="0.4 0 0.6 1; 0.4 0 0.6 1"
                      keyTimes="0; 0.5; 1"
                      values="0 0; 0 20; 0 0"/>
  </path>

  <path id="audioLevel17" fill="#CCCCCC" d="M3456 3718 c-26 -23 -26 -23 -26 -378 -1 -342 0 -357 21 -410 34 -87
49 -224 49 -461 0 -242 -17 -403 -51 -495 -22 -57 -23 -70 -21 -379 1 -314 2
-320 23 -337 30 -25 66 -22 94 7 25 24 25 24 22 1231 -4 1207 -4 1207 -26
1226 -31 24 -54 23 -85 -4z">
    <animateTransform attributeName="transform"
                      type="translate"
                      from="0 0"
                      to="0 45"
                      dur="1s"
                      begin="1.6s"
                      repeatCount="indefinite"
                      calcMode="spline"
                      keySplines="0.4 0 0.6 1; 0.4 0 0.6 1"
                      keyTimes="0; 0.5; 1"
                      values="0 0; 0 45; 0 0"/>
  </path>

  <path id="audioLevel18" fill="#CCCCCC" d="M2696 3581 c-14 -16 -16 -43 -14 -232 3 -214 3 -214 65 -217 53 -3
63 0 72 17 7 13 10 89 9 210 -3 185 -4 190 -27 215 -30 31 -80 35 -105 7z">
     <animateTransform attributeName="transform"
                      type="translate"
                      from="0 0"
                      to="0 20"
                      dur="1s"
                      begin="1.7s"
                      repeatCount="indefinite"
                      calcMode="spline"
                      keySplines="0.4 0 0.6 1; 0.4 0 0.6 1"
                      keyTimes="0; 0.5; 1"
                      values="0 0; 0 20; 0 0"/>
  </path>

  <path id="audioLevel19" fill="#CCCCCC" d="M1630 3485 c-23 -25 -23 -27 -21 -242 1 -119 4 -219 6 -221 2 -3 21
10 41 28 21 18 52 39 71 46 33 14 33 14 33 185 0 205 -8 229 -76 229 -20 0
-39 -9 -54 -25z">
    <animateTransform attributeName="transform"
                      type="translate"
                      from="0 0"
                      to="0 30"
                      dur="1s"
                      begin="1.8s"
                      repeatCount="indefinite"
                      calcMode="spline"
                      keySplines="0.4 0 0.6 1; 0.4 0 0.6 1"
                      keyTimes="0; 0.5; 1"
                      values="0 0; 0 30; 0 0"/>
  </path>

  <path id="audioLevel20" fill="#CCCCCC" d="M3192 3387 c-20 -21 -22 -34 -22 -134 0 -77 4 -114 13 -120 12 -10
95 -33 116 -33 7 0 11 46 11 133 0 104 -3 137 -16 155 -21 30 -73 30 -102 -1z">
     <animateTransform attributeName="transform"
                      type="translate"
                      from="0 0"
                      to="0 15"
                      dur="1s"
                      begin="1.9s"
                      repeatCount="indefinite"
                      calcMode="spline"
                      keySplines="0.4 0 0.6 1; 0.4 0 0.6 1"
                      keyTimes="0; 0.5; 1"
                      values="0 0; 0 15; 0 0"/>
  </path>

  <path id="audioLevel21" fill="#CCCCCC" d="M1904 3345 c-23 -23 -25 -30 -22 -117 3 -93 3 -93 52 -96 27 -2 61
-1 74 3 23 6 24 8 20 99 -2 75 -7 98 -22 115 -26 29 -71 27 -102 -4z">
    <animateTransform attributeName="transform"
                      type="translate"
                      from="0 0"
                      to="0 15"
                      dur="1s"
                      begin="2.0s"
                      repeatCount="indefinite"
                      calcMode="spline"
                      keySplines="0.4 0 0.6 1; 0.4 0 0.6 1"
                      keyTimes="0; 0.5; 1"
                      values="0 0; 0 15; 0 0"/>
  </path>

  <path id="audioLevel22" fill="#CCCCCC" d="M2957 3308 c-34 -27 -51 -140 -25 -166 7 -7 35 -12 63 -12 28 0 56 5
63 12 21 21 15 122 -9 152 -22 29 -64 35 -92 14z">
    <animateTransform attributeName="transform"
                      type="translate"
                      from="0 0"
                      to="0 10"
                      dur="1s"
                      begin="2.1s"
                      repeatCount="indefinite"
                      calcMode="spline"
                      keySplines="0.4 0 0.6 1; 0.4 0 0.6 1"
                      keyTimes="0; 0.5; 1"
                      values="0 0; 0 10; 0 0"/>
  </path>

  <path id="audioLevel23" fill="#CCCCCC" d="M1618 1873 c-2 -4 -4 -88 -3 -186 0 -176 0 -179 24 -198 30 -25 72
-24 99 1 20 19 22 31 24 145 0 69 1 131 2 137 1 7 -19 23 -44 36 -25 13 -57
35 -71 49 -15 13 -29 21 -31 16z">
    <animateTransform attributeName="transform"
                      type="translate"
                      from="0 0"
                      to="0 25"
                      dur="1s"
                      begin="2.2s"
                      repeatCount="indefinite"
                      calcMode="spline"
                      keySplines="0.4 0 0.6 1; 0.4 0 0.6 1"
                      keyTimes="0; 0.5; 1"
                      values="0 0; 0 25; 0 0"/>
  </path>

  <path id="audioLevel24" fill="#CCCCCC" d="M3245 1801 c-76 -25 -75 -23 -75 -115 0 -100 19 -136 74 -136 57 0
66 21 66 153 0 64 -3 117 -7 116 -5 -1 -30 -8 -58 -18z">
    <animateTransform attributeName="transform"
                      type="translate"
                      from="0 0"
                      to="0 15"
                      dur="1s"
                      begin="2.3s"
                      repeatCount="indefinite"
                      calcMode="spline"
                      keySplines="0.4 0 0.6 1; 0.4 0 0.6 1"
                      keyTimes="0; 0.5; 1"
                      values="0 0; 0 15; 0 0"/>
  </path>

  <path id="audioLevel25" fill="#CCCCCC" d="M1887 1763 c-4 -3 -7 -42 -7 -85 0 -70 3 -82 25 -103 29 -30 75 -33
98 -7 13 15 17 39 17 110 0 92 0 92 -63 92 -35 0 -67 -3 -70 -7z">
    <animateTransform attributeName="transform"
                      type="translate"
                      from="0 0"
                      to="0 10"
                      dur="1s"
                      begin="2.4s"
                      repeatCount="indefinite"
                      calcMode="spline"
                      keySplines="0.4 0 0.6 1; 0.4 0 0.6 1"
                      keyTimes="0; 0.5; 1"
                      values="0 0; 0 10; 0 0"/>
  </path>

  <path id="audioLevel26" fill="#CCCCCC" d="M2160 1522 c0 -247 0 -249 23 -270 28 -27 67 -28 96 -4 21 17 22 23
21 261 0 134 -3 247 -6 252 -3 5 -34 9 -70 9 -64 0 -64 0 -64 -248z">
    <animateTransform attributeName="transform"
                      type="translate"
                      from="0 0"
                      to="0 30"
                      dur="1s"
                      begin="2.5s"
                      repeatCount="indefinite"
                      calcMode="spline"
                      keySplines="0.4 0 0.6 1; 0.4 0 0.6 1"
                      keyTimes="0; 0.5; 1"
                      values="0 0; 0 30; 0 0"/>
  </path>

  <path id="audioLevel27" fill="#CCCCCC" d="M2431 1756 c-9 -10 -11 -109 -9 -389 3 -352 4 -376 22 -396 25 -27
86 -29 110 -3 15 17 16 56 14 408 -3 389 -3 389 -64 392 -44 2 -64 -1 -73 -12z">
    <animateTransform attributeName="transform"
                      type="translate"
                      from="0 0"
                      to="0 40"
                      dur="1s"
                      begin="2.6s"
                      repeatCount="indefinite"
                      calcMode="spline"
                      keySplines="0.4 0 0.6 1; 0.4 0 0.6 1"
                      keyTimes="0; 0.5; 1"
                      values="0 0; 0 40; 0 0"/>
  </path>

  <path id="audioLevel28" fill="#CCCCCC" d="M2687 1763 c-4 -3 -7 -74 -7 -157 0 -178 6 -196 70 -196 60 0 68 20
75 182 8 171 6 178 -74 178 -32 0 -61 -3 -64 -7z">
    <animateTransform attributeName="transform"
                      type="translate"
                      from="0 0"
                      to="0 25"
                      dur="1s"
                      begin="2.7s"
                      repeatCount="indefinite"
                      calcMode="spline"
                      keySplines="0.4 0 0.6 1; 0.4 0 0.6 1"
                      keyTimes="0; 0.5; 1"
                      values="0 0; 0 25; 0 0"/>
  </path>

  <path id="youtubeLogoTriangle" fill="#FFFFFF" d="M2301 2445 c0 -157 3 -285 8 -285 4 0 19 8 32 18 29 22 331 202 400
239 27 14 49 28 49 32 0 4 -16 15 -36 25 -49 23 -395 226 -415 242 -8 8 -20
14 -26 14 -6 0 -11 -99 -12 -285z"/>

</g>
</svg>
