<?xml version="1.0" encoding="UTF-8" standalone="no"?>
<!-- Created with Inkscape (http://www.inkscape.org/) -->

<svg
   version="1.1"
   id="svg1"
   width="500"
   height="500"
   viewBox="0 0 500 500"
   sodipodi:docname="logo-styled.svg"
   inkscape:version="1.4 (86a8ad7, 2024-10-11)"
   xmlns:inkscape="http://www.inkscape.org/namespaces/inkscape"
   xmlns:sodipodi="http://sodipodi.sourceforge.net/DTD/sodipodi-0.dtd"
   xmlns="http://www.w3.org/2000/svg"
   xmlns:svg="http://www.w3.org/2000/svg">
  <sodipodi:namedview
     id="namedview1"
     pagecolor="#ffffff"
     bordercolor="#000000"
     borderopacity="0.25"
     inkscape:showpageshadow="2"
     inkscape:pageopacity="0.0"
     inkscape:pagecheckerboard="0"
     inkscape:deskcolor="#d1d1d1"
     showgrid="false"
     inkscape:zoom="0.972"
     inkscape:cx="250.5144"
     inkscape:cy="250"
     inkscape:window-width="1280"
     inkscape:window-height="730"
     inkscape:window-x="-6"
     inkscape:window-y="-6"
     inkscape:window-maximized="1"
     inkscape:current-layer="g1" />
  <defs
     id="defs1" />
  <g
     inkscape:groupmode="layer"
     inkscape:label="Image"
     id="g1">
    <path
       style="fill:#de8787"
       d="m 218.08025,448.34937 c -44.26796,-7.18931 -80.8072,-25.34773 -112.19417,-55.75565 -23.913423,-23.16749 -40.660963,-49.88569 -51.195733,-81.67515 -3.55631,-10.73143 -3.90779,-12.07978 -5.99556,-23 -3.51909,-18.4068 -4.11454,-24.50097 -4.11454,-42.11072 0,-16.17293 0.37482,-20.62638 3.10478,-36.88928 7.83281,-46.66152 34.37961,-91.5962 71.895223,-121.694061 28.1903,-22.616395 60.93524,-36.80048 98,-42.450526 11.1635,-1.701733 47.05199,-1.715529 57.5,-0.0221 47.93647,7.769596 86.11067,27.114984 117,59.291637 22.45348,23.38921 40.76406,54.82281 48.56734,83.37506 2.53707,9.28316 3.0723,11.44736 3.95702,16 3.87931,19.96257 5.29842,52.18883 2.96881,67.41809 -4.37243,28.5836 -8.84016,43.62832 -19.47544,65.58191 -27.24627,56.2424 -79.05009,97.07168 -139.01773,109.56709 -19.67441,4.09954 -53.39847,5.22227 -71,2.36371 z m 56.37166,-9.9662 c 42.37878,-6.12216 80.407,-26.00359 111.28487,-58.18055 16.9759,-17.6901 27.92729,-34.62872 39.29895,-60.78405 3.82975,-8.80859 8.47744,-25.28311 11.14604,-39.50898 2.43541,-12.98275 2.97461,-44.70082 1.01134,-59.49102 C 427.43186,146.88286 378.46357,86.804236 309.24929,63.445784 271.73365,50.784997 227.53556,49.984253 190.08025,61.28678 126.28127,80.538783 77.197727,131.85156 60.622377,196.62431 c -7.17587,28.04167 -7.95006,61.67114 -2.07609,90.18129 16.20609,78.65857 81.442263,139.88471 161.507353,151.57958 12.82,1.87258 41.4293,1.87153 54.39827,-0.002 z m -33.31496,-39.68711 c -1.34311,-1.91756 -1.5567,-7.47434 -1.5567,-40.5 v -38.27749 h 7.03362 7.03362 l -0.28362,39.08134 c -0.2711,37.35672 -0.36928,39.14395 -2.22475,40.5 -3.02878,2.21356 -8.17859,1.79968 -10.00217,-0.80385 z m -26.10215,-28.23204 -2.45455,-2.45454 v -24.04546 -24.04545 h 7 7 v 24.42742 24.42742 l -2.63486,2.07258 c -3.46016,2.72177 -5.91196,2.61667 -8.91059,-0.38197 z m 128.04545,0.2596 c -1.1,-0.62377 -2.33061,-1.62258 -2.73469,-2.21959 -0.40408,-0.597 -0.74158,-15.37786 -0.75,-32.84636 -0.014,-29.00502 0.14872,-32.12872 1.87505,-36 4.3429,-9.7389 4.61087,-12.67754 4.58121,-50.2391 l -0.0284,-36 -2.95177,-7.5 -2.95177,-7.5 -0.302,-36 c -0.30005,-35.76736 -0.28815,-36.01131 1.84099,-37.75 2.78244,-2.27218 7.17264,-2.23488 9.26643,0.0787 1.52073,1.68038 1.65499,11.6124 1.65499,122.42742 v 120.59868 l -2.63486,2.07258 c -2.9869,2.3495 -4.03359,2.4833 -6.86514,0.87763 z m -75.1003,-16.57036 c -2.74613,-1.83364 -3.3997,-5.61489 -3.3997,-19.66895 v -14.56574 h 7 7 v 15.31144 c 0,14.0267 -0.17108,15.49507 -2.03896,17.5 -2.00678,2.15403 -6.37848,2.88078 -8.56134,1.42325 z m -106.69298,-7.25075 -2.70672,-2.1291 v -17.92082 -17.92081 l 4.57693,3.49365 c 2.51732,1.92151 5.66732,3.76732 7,4.1018 2.41193,0.60536 2.42307,0.6692 2.42307,13.88896 0,11.19386 -0.275,13.6058 -1.75,15.34895 -2.6988,3.18944 -6.37719,3.62783 -9.54328,1.13737 z m 27.79328,-7.17889 c -3.18023,-1.80339 -3.46849,-2.80062 -3.48469,-12.05505 l -0.0153,-8.75 h 6.5 6.5 v 8.92742 c 0,8.45336 -0.13991,9.03748 -2.63486,11 -2.9869,2.3495 -4.03359,2.4833 -6.86514,0.87763 z m 127.7936,-0.31196 c -2.54463,-1.78233 -3.90769,-9.91236 -2.84736,-16.98316 0.57644,-3.844 1.06837,-4.58524 3.36446,-5.06957 1.47912,-0.312 4.3768,-1.17752 6.4393,-1.92337 l 3.75,-1.3561 v 11.41956 c 0,10.08622 -0.23352,11.65307 -2,13.41955 -2.37907,2.37907 -5.74188,2.56952 -8.7064,0.49309 z m -182.10504,-18.53205 -2.18856,-2.03895 v -71.40434 -71.40434 l 2.22251,-1.55671 c 2.97733,-2.0854 6.05577,-1.96214 8.91671,0.35702 l 2.36078,1.91373 0.003,64.68271 c 0.003,73.69854 -0.14963,77.75858 -3.01014,79.92029 -2.77381,2.0962 -5.72968,1.92911 -8.30419,-0.46941 z m 233.81144,-5.70222 c -3.9305,-1.52839 -3.93535,-1.61332 -3.9682,-69.43624 l -0.0318,-65.67742 2.63486,-2.07258 c 3.46016,-2.72177 5.91196,-2.61667 8.91059,0.38197 l 2.45455,2.45454 v 65.09091 65.09091 l -2.45455,2.45454 c -2.40137,2.40138 -4.53197,2.88518 -7.54545,1.71337 z m -177.5,-4.31245 c -6.05,-0.40103 -12.76645,-1.27096 -14.92545,-1.9332 -5.63267,-1.72773 -14.74812,-11.14322 -16.95508,-17.51317 -3.2223,-9.30051 -4.64228,-44.75468 -2.67451,-66.77702 1.94172,-21.73079 9.74913,-31.14614 28.05504,-33.83299 11.27327,-1.65464 116.60073,-1.74504 125.79311,-0.10797 13.0737,2.32829 20.69587,8.65589 24.30404,20.17616 1.78065,5.68533 2.12308,10.14229 2.61542,34.04182 0.36821,17.87363 0.17524,30.38691 -0.55124,35.74714 -1.83244,13.52022 -6.94385,21.54357 -16.82309,26.40711 -6.18823,3.04646 -7.09362,3.19763 -23.63648,3.94662 -20.98536,0.95013 -90.06733,0.84867 -105.20176,-0.1545 z m 38.05,-31.84692 c 0.83119,-0.78792 28.19376,-17.13589 37.2638,-22.26353 5.28552,-2.98811 8.1884,-5.01672 8.15784,-5.70093 -0.0296,-0.66278 -2.36647,-2.09967 -22.97164,-14.12483 -6.875,-4.01224 -14.96332,-8.77015 -17.97404,-10.57313 -3.01072,-1.80298 -5.82322,-3.06233 -6.25,-2.79857 -1.02999,0.63657 -1.00622,56.36154 0.024,56.36154 0.44,0 1.2275,-0.40525 1.75,-0.90055 z m 162.50578,6.95633 c -1.06933,-1.06933 -2.22028,-3.43183 -2.55768,-5.25 -0.33741,-1.81818 -0.47501,-18.53354 -0.30578,-37.14524 l 0.30768,-33.83946 2.36078,-1.91054 c 3.04735,-2.46616 6.61856,-2.4312 9.13922,0.0895 1.92793,1.92793 2,3.33333 2,39 0,35.66667 -0.0721,37.07207 -2,39 -2.53759,2.53759 -6.43808,2.56192 -8.94422,0.0558 z m -282.05578,-1.05578 c -1.92593,-1.92593 -2,-3.33333 -2,-38 0,-34.66667 0.0741,-36.07407 2,-38 2.3975,-2.3975 5.74603,-2.56662 8.77749,-0.4433 l 2.22251,1.55671 v 36.88659 36.88659 l -2.22251,1.55671 c -3.03146,2.12332 -6.37999,1.9542 -8.77749,-0.4433 z M 85.235237,266.08983 c -1.39937,-1.54628 -1.65499,-4.37977 -1.65499,-18.34501 0,-14.73071 0.1977,-16.69519 1.82874,-18.17126 2.48056,-2.24487 6.74167,-2.08458 9.17126,0.34501 1.83685,1.83685 2,3.33333 2,18.34501 0,14.56479 -0.19918,16.52527 -1.82874,18 -2.42729,2.19667 -7.45414,2.10488 -9.51627,-0.17375 z m 329.786143,-4.59065 c -1.74292,-1.27445 -1.94113,-2.70035 -1.94113,-13.96428 0,-14.03564 0.78003,-15.94966 6.5,-15.94966 5.65869,0 6.5,1.97566 6.5,15.26406 0,10.25881 -0.25709,12.14338 -1.90499,13.96428 -2.1977,2.42844 -6.34555,2.7391 -9.15388,0.6856 z M 158.58025,170.66237 c 0,-22.25199 0.0372,-22.65642 2.22251,-24.1871 3.10318,-2.17355 7.12036,-1.93978 9.3725,0.54541 1.69028,1.86518 1.94036,4.05709 2.21883,19.44711 l 0.31384,17.345 -4.31384,2.16291 c -2.37261,1.1896 -5.55134,3.32259 -7.06384,4.73998 l -2.75,2.57707 z m 161.87727,13.53495 -5.62272,-1.45 -0.51368,-10.66437 c -0.57821,-12.00407 0.26147,-15.08952 4.51347,-16.58487 2.21177,-0.77783 3.28726,-0.56602 5.49767,1.08274 2.73517,2.04019 2.74929,2.11339 3.02621,15.69375 0.15302,7.5042 -0.072,13.58297 -0.5,13.50838 -0.42802,-0.0746 -3.30845,-0.78813 -6.40095,-1.58563 z m -134.87727,-11.1596 c 0,-10.39563 0.66292,-12.24262 4.87384,-13.57911 2.82786,-0.89753 6.99984,1.10819 7.64328,3.67459 0.31515,1.25695 0.44021,6.11037 0.27793,10.78537 l -0.29505,8.5 -6.25,0.29772 -6.25,0.29771 z m 27,-19.06245 c 0,-27.74219 0.016,-27.9545 2.22251,-29.5 2.33836,-1.63785 6.5187,-2.03273 8.37779,-0.79139 3.02208,2.0179 3.3997,5.53555 3.3997,31.66895 v 26.56574 h -7 -7 z m 27,-16.48412 V 93.063739 l 2.63486,-2.07258 c 3.25095,-2.557199 5.14438,-2.581662 8.36514,-0.108076 l 2.5,1.920032 0.27994,44.557725 0.27994,44.55773 h -7.02994 -7.02994 z m 25,23.49885 c 0,-17.30641 0.26063,-21.18921 1.50592,-22.43449 3.72947,-3.72948 9.20684,-2.75754 11.38362,2.01998 0.69237,1.51957 1.11046,9.76135 1.11046,21.89013 v 19.45295 h -7 -7 z m 25,14.38312 c 0,-5.61617 0.34848,-6.89394 2.45455,-9 2.8378,-2.83781 5.19085,-3.09165 8.32294,-0.89785 1.95819,1.37157 2.22251,2.44193 2.22251,9 v 7.4433 h -6.5 -6.5 z"
       id="path1" />
  </g>
</svg>
